<svg width="1315" height="239" viewBox="0 0 1315 239" fill="none" xmlns="http://www.w3.org/2000/svg">
<path d="M1246.15 41.9298H1315L1308.23 73.8431H1273.45L1267.62 101.33H1297.73L1291.19 132.312H1261.08L1255.25 159.566H1290.26L1283.49 191.48H1214.4L1221.17 159.566H1241.71L1244.05 155.373H1222.11H1204.6L1206.93 151.18H1223.04L1246.15 41.9298ZM601.483 193.809C588.646 190.781 579.076 184.258 572.541 174.009H599.616L602.417 169.816H569.973H554.569L557.37 165.623H568.106C562.504 151.646 561.804 134.874 566.005 115.074C570.674 92.7115 580.943 74.309 596.348 59.8665C611.753 45.424 629.025 37.9698 647.697 37.9698C654.933 37.9698 661.468 38.9016 667.303 40.9981L659.834 76.6384C653.765 74.5419 647.93 73.3772 642.095 73.3772C633.226 73.3772 625.057 77.3372 617.588 85.4903C610.119 93.6433 604.984 103.893 602.183 116.239C599.382 129.75 600.083 140.232 604.284 148.152C608.485 155.839 615.487 159.799 625.29 159.799C630.192 159.799 636.027 158.634 642.796 156.538L635.327 191.945C628.091 194.042 622.256 195.207 618.521 195.44C625.057 198.934 627.624 205.223 625.524 214.308C623.89 221.762 619.922 227.819 613.853 232.245C607.551 236.671 600.082 239 590.98 239C584.678 239 579.543 238.301 574.875 237.136L577.676 223.859C581.877 224.79 587.012 225.256 593.314 225.256C597.748 225.256 601.25 224.325 604.284 222.461C607.085 220.597 608.952 218.035 609.652 214.774C611.052 208.484 608.018 205.456 600.783 205.456C597.515 205.456 593.547 206.155 589.346 207.553L594.014 196.604C597.048 194.974 599.616 194.275 601.483 193.809ZM67.2204 41.9298H136.075L129.306 73.8431H94.2954L88.4602 101.33H118.569L112.034 132.312H81.9249L76.0898 159.566H111.1L104.332 191.48H83.3253H83.0919H15.8715L19.8394 187.287H36.1777L50.1819 121.131H63.2526L67.2204 116.938H0L3.96787 112.745H52.0492L67.2204 41.9298ZM182.989 153.277H115.535L119.503 149.084H159.182L149.145 42.1628H184.623L189.058 108.319C189.758 121.364 189.758 132.545 189.058 141.863H189.524C192.325 133.71 195.126 126.954 197.46 121.829L224.535 64.2924H250.91L254.177 60.0994H199.094L202.362 55.9064H228.503L234.805 42.3957H271.683L194.659 191.48H192.559H192.325H132.574L136.075 187.287H162.683L159.882 157.47H178.788L182.989 153.277ZM346.139 119.267H298.291L301.092 115.074H327.933C334.002 86.1891 330.501 71.9795 317.663 71.9795C305.293 71.9795 296.19 86.422 290.122 115.074C286.154 133.71 284.987 146.056 286.854 152.112C288.721 158.402 292.456 161.43 298.291 161.43C304.593 161.43 310.194 158.402 314.862 152.112C318.83 146.987 322.565 137.437 325.832 123.693H343.104L346.139 119.267ZM405.89 191.48H345.905L349.406 187.287H365.278L396.321 41.9298H430.398L405.89 157.004H432.732L425.263 191.712H405.89V191.48ZM540.331 119.267H497.618L500.185 115.074H516.757L532.395 42.1628H567.173L546.166 140.232C543.365 153.51 539.164 164.225 534.029 172.378C528.894 180.531 522.359 186.355 514.657 190.082C506.954 193.809 497.151 195.673 484.781 195.673C466.575 195.673 454.905 191.014 449.537 181.696C444.168 172.378 443.702 156.771 448.37 134.641L468.209 41.6969H503.22L480.813 146.987C479.879 151.879 480.346 155.839 482.213 158.635C484.314 161.43 487.348 162.827 491.783 162.827C496.451 162.827 500.185 161.197 503.687 158.169C506.954 155.14 509.288 150.947 510.455 145.59L515.357 122.994H538.464L540.331 119.267ZM670.104 138.135H646.063L648.631 133.943H672.204L716.318 41.9298H754.596L762.532 191.48H726.821L726.354 166.555H690.41L679.207 191.48H644.429L668.003 142.328H686.209L688.776 138.135H670.104ZM879.934 123.693H837.221L839.789 119.5H852.626C852.859 118.335 853.093 117.171 853.326 115.773C859.628 86.655 856.127 71.9795 843.056 71.9795C830.686 71.9795 821.583 86.422 815.515 115.074C811.547 133.71 810.38 146.056 812.247 152.112C814.114 158.402 817.849 161.43 823.684 161.43C829.986 161.43 835.587 158.402 840.256 152.112C843.757 147.453 847.024 139.3 850.292 127.886H877.133L879.934 123.693ZM988.934 178.435H921.48L925.448 174.242H940.619L968.628 42.1628H1003.17C1023.24 42.1628 1037.02 46.1228 1044.02 54.0429C1051.25 61.963 1053.35 71.9795 1050.79 84.0926C1047.99 97.1374 1039.35 107.853 1024.64 115.773C1037.95 121.596 1043.08 132.545 1039.58 148.618C1036.78 161.43 1030.01 171.912 1019.28 179.832C1008.54 187.752 995.703 191.712 980.998 191.712H936.652L938.519 182.861H984.499L988.934 178.435ZM1078.33 191.48H1018.34L1021.84 187.287H1047.05L1078.09 41.9298H1111.94L1080.9 187.287H1081.6L1078.33 191.48L1080.9 188.451L1080.2 191.48H1078.33ZM1167.72 117.171H1108.9L1112.41 112.978H1121.04L1136.21 42.1628H1170.29L1155.35 112.512H1155.82L1202.97 42.1628H1238.68L1187.56 118.568L1205.3 191.712H1167.96L1152.32 129.517H1151.85L1138.55 191.712H1104.47L1119.41 121.596H1164.45L1167.72 117.171ZM996.636 70.5819L989.868 102.961C1005.04 102.495 1013.91 97.3704 1016.01 87.1209C1017.41 81.0643 1016.48 76.8713 1013.21 74.5419C1009.94 71.9795 1004.57 70.8148 996.636 70.5819ZM984.033 129.982L977.031 162.362C985.666 162.129 992.435 160.964 997.337 158.402C1002.24 155.839 1005.27 151.879 1006.44 146.056C1008.77 135.34 1002.24 129.982 986.833 129.982H984.033ZM818.082 195.207C799.877 195.207 787.74 188.218 781.204 174.475C774.669 160.498 774.202 140.698 779.804 114.375C784.939 90.1491 793.808 71.5136 806.179 58.0029C818.549 44.4922 833.253 37.7368 850.292 37.7368C868.497 37.7368 880.868 44.4922 887.637 58.0029C894.405 71.5136 895.106 90.8479 889.737 116.006C884.369 141.164 875.5 160.498 863.129 174.475C850.759 188.218 835.587 195.207 818.082 195.207ZM725.654 139.766C725.187 117.404 725.887 96.4386 727.755 76.1725H727.288C720.286 96.9045 711.883 118.102 702.314 139.766H725.654ZM711.65 28.4191H697.412L698.112 25.1579C699.746 17.2378 702.78 11.1813 707.449 6.75536C711.883 2.32944 717.485 0 724.02 0C726.821 0 729.389 0.232947 731.489 0.931777C733.59 1.63061 736.857 3.02827 741.292 5.12476C747.361 7.92008 752.029 9.55068 755.296 9.55068C760.665 9.55068 764.399 6.28947 766.5 0H780.971C777.003 18.6355 768.367 27.9532 755.063 27.9532C752.029 27.9532 749.695 27.7203 747.827 27.2544C745.96 26.7885 742.459 25.3908 737.091 23.0614C730.089 20.0331 724.954 18.6355 721.686 18.6355C716.551 18.6355 713.284 21.6637 712.117 27.4873L711.65 28.4191ZM292.689 195.207C274.483 195.207 262.346 188.218 255.811 174.475C249.276 160.498 248.809 140.698 254.411 114.375C259.546 90.1491 268.415 71.5136 280.785 58.0029C293.156 44.4922 307.86 37.7368 324.899 37.7368C343.104 37.7368 355.475 44.4922 362.244 58.0029C369.012 71.5136 369.712 90.8479 364.344 116.006C358.976 141.164 350.106 160.498 337.736 174.475C325.132 188.218 310.194 195.207 292.689 195.207Z" fill="#45B653"/>
</svg>
