<svg width="1691" height="302" viewBox="0 0 1691 302" fill="none" xmlns="http://www.w3.org/2000/svg">
<path d="M1602.46 52.9825H1691L1682.3 93.308H1637.57L1630.07 128.041H1668.79L1660.39 167.189H1621.67L1614.16 201.628H1659.19L1650.48 241.953H1561.64L1570.34 201.628H1596.76L1599.76 196.329H1571.54H1549.03L1552.03 191.031H1572.74L1602.46 52.9825ZM773.466 244.897C756.958 241.07 744.652 232.828 736.248 219.877H771.065L774.666 214.579H732.947H713.137L716.739 209.281H730.546C723.342 191.62 722.442 170.427 727.844 145.407C733.847 117.15 747.053 93.8967 766.863 75.6472C786.672 57.3977 808.883 47.9786 832.894 47.9786C842.198 47.9786 850.602 49.1559 858.106 51.8051L848.501 96.8402C840.698 94.191 833.194 92.7193 825.691 92.7193C814.285 92.7193 803.78 97.7232 794.176 108.025C784.571 118.327 777.968 131.279 774.366 146.879C770.765 163.951 771.665 177.197 777.068 187.205C782.47 196.918 791.474 201.922 804.08 201.922C810.383 201.922 817.887 200.45 826.591 197.801L816.986 242.542C807.682 245.191 800.179 246.663 795.376 246.957C803.78 251.372 807.082 259.32 804.381 270.799C802.28 280.218 797.177 287.871 789.373 293.464C781.27 299.056 771.665 302 759.959 302C751.856 302 745.252 301.117 739.25 299.645L742.851 282.867C748.254 284.045 754.857 284.633 762.961 284.633C768.664 284.633 773.166 283.456 777.068 281.101C780.669 278.747 783.07 275.509 783.971 271.388C785.772 263.441 781.87 259.614 772.565 259.614C768.363 259.614 763.261 260.497 757.858 262.263L763.861 248.429C767.763 246.368 771.065 245.485 773.466 244.897ZM86.4409 52.9825H174.983L166.279 93.308H121.257L113.754 128.041H152.472L144.068 167.189H105.35L97.8463 201.628H142.868L134.163 241.953H107.151H106.851H20.4097L25.5121 236.655H46.522L64.5305 153.06H81.3385L86.4409 147.762H0L5.10241 142.464H66.9317L86.4409 52.9825ZM235.311 193.68H148.57L153.673 188.382H204.697L191.791 53.2768H237.412L243.115 136.871C244.015 153.355 244.015 167.483 243.115 179.257H243.715C247.317 168.955 250.919 160.419 253.92 153.943L288.737 81.2398H322.653L326.855 75.9415H256.021L260.223 70.6433H293.839L301.943 53.5711H349.365L250.318 241.953H247.617H247.317H170.481L174.983 236.655H209.199L205.597 198.979H229.909L235.311 193.68ZM445.111 150.706H383.581L387.183 145.407H421.699C429.503 108.908 425.001 90.9532 408.493 90.9532C392.586 90.9532 380.88 109.203 373.076 145.407C367.974 168.955 366.473 184.556 368.874 192.209C371.276 200.156 376.078 203.982 383.581 203.982C391.685 203.982 398.889 200.156 404.892 192.209C409.994 185.733 414.796 173.665 418.998 156.298H441.209L445.111 150.706ZM521.947 241.953H444.81L449.313 236.655H469.722L509.641 52.9825H553.462L521.947 198.39H556.463L546.859 242.248H521.947V241.953ZM694.829 150.706H639.903L643.204 145.407H664.514L684.624 53.2768H729.345L702.332 177.197C698.731 193.975 693.328 207.515 686.725 217.817C680.122 228.119 671.718 235.478 661.813 240.187C651.908 244.897 639.302 247.251 623.395 247.251C599.984 247.251 584.977 241.365 578.073 229.591C571.17 217.817 570.57 198.095 576.573 170.133L602.085 52.6881H647.106L618.292 185.733C617.092 191.914 617.692 196.918 620.093 200.45C622.795 203.982 626.696 205.749 632.399 205.749C638.402 205.749 643.204 203.688 647.706 199.862C651.908 196.035 654.91 190.737 656.41 183.967L662.713 155.415H692.428L694.829 150.706ZM861.708 174.548H830.793L834.095 169.25H864.409L921.136 52.9825H970.359L980.564 241.953H934.642L934.042 210.458H887.82L873.413 241.953H828.692L859.006 179.846H882.417L885.719 174.548H861.708ZM1131.54 156.298H1076.61L1079.91 151H1096.42C1096.72 149.528 1097.02 148.057 1097.32 146.29C1105.42 109.497 1100.92 90.9532 1084.11 90.9532C1068.21 90.9532 1056.5 109.203 1048.7 145.407C1043.59 168.955 1042.09 184.556 1044.49 192.209C1046.9 200.156 1051.7 203.982 1059.2 203.982C1067.3 203.982 1074.51 200.156 1080.51 192.209C1085.01 186.322 1089.22 176.019 1093.42 161.596H1127.93L1131.54 156.298ZM1271.7 225.47H1184.96L1190.06 220.172H1209.57L1245.59 53.2768H1290.01C1315.82 53.2768 1333.53 58.2807 1342.54 68.2885C1351.84 78.2963 1354.54 90.9532 1351.24 106.259C1347.64 122.743 1336.53 136.283 1317.62 146.29C1334.73 153.649 1341.33 167.483 1336.83 187.793C1333.23 203.982 1324.53 217.228 1310.72 227.236C1296.91 237.244 1280.41 242.248 1261.5 242.248H1204.47L1206.87 231.062H1266L1271.7 225.47ZM1386.66 241.953H1309.52L1314.02 236.655H1346.44L1386.36 52.9825H1429.88L1389.96 236.655H1390.86L1386.66 241.953L1389.96 238.127L1389.06 241.953H1386.66ZM1501.61 148.057H1425.97L1430.48 142.758H1441.58L1461.09 53.2768H1504.91L1485.7 142.17H1486.3L1546.93 53.2768H1592.85L1527.12 149.823L1549.93 242.248H1501.91L1481.8 163.657H1481.2L1464.09 242.248H1420.27L1439.48 153.649H1497.41L1501.61 148.057ZM1281.61 89.1871L1272.9 130.101C1292.41 129.513 1303.82 123.037 1306.52 110.086C1308.32 102.433 1307.12 97.1345 1302.92 94.191C1298.71 90.9532 1291.81 89.4815 1281.61 89.1871ZM1265.4 164.246L1256.39 205.16C1267.5 204.865 1276.2 203.394 1282.51 200.156C1288.81 196.918 1292.71 191.914 1294.21 184.556C1297.21 171.016 1288.81 164.246 1269 164.246H1265.4ZM1052 246.663C1028.59 246.663 1012.98 237.832 1004.58 220.466C996.171 202.805 995.571 177.786 1002.77 144.524C1009.38 113.912 1020.78 90.3645 1036.69 73.2924C1052.6 56.2203 1071.51 47.6842 1093.42 47.6842C1116.83 47.6842 1132.74 56.2203 1141.44 73.2924C1150.14 90.3645 1151.04 114.795 1144.14 146.585C1137.24 178.374 1125.83 202.805 1109.92 220.466C1094.02 237.832 1074.51 246.663 1052 246.663ZM933.141 176.608C932.541 148.351 933.442 121.86 935.843 96.2515H935.242C926.238 122.448 915.433 149.234 903.127 176.608H933.141ZM915.133 35.9103H896.824L897.725 31.7895C899.826 21.7817 903.728 14.1287 909.73 8.53607C915.433 2.94347 922.636 0 931.04 0C934.642 0 937.944 0.294351 940.645 1.17739C943.346 2.06043 947.548 3.82651 953.251 6.47564C961.055 10.0078 967.057 12.0682 971.259 12.0682C978.163 12.0682 982.965 7.94737 985.666 0H1004.28C999.173 23.5478 988.067 35.3216 970.959 35.3216C967.057 35.3216 964.056 35.0273 961.655 34.4386C959.254 33.8499 954.752 32.0838 947.848 29.1404C938.844 25.3138 932.241 23.5478 928.039 23.5478C921.436 23.5478 917.234 27.3743 915.733 34.7329L915.133 35.9103ZM376.378 246.663C352.967 246.663 337.36 237.832 328.956 220.466C320.552 202.805 319.951 177.786 327.155 144.524C333.758 113.912 345.163 90.3645 361.071 73.2924C376.978 56.2203 395.887 47.6842 417.798 47.6842C441.209 47.6842 457.116 56.2203 465.82 73.2924C474.524 90.3645 475.425 114.795 468.522 146.585C461.618 178.374 450.213 202.805 434.305 220.466C418.098 237.832 398.889 246.663 376.378 246.663Z" fill="white"/>
</svg>
